<svg xmlns="http://www.w3.org/2000/svg" xmlns:xlink="http://www.w3.org/1999/xlink" width="500" zoomAndPan="magnify" viewBox="0 0 375 374.999991" height="500" preserveAspectRatio="xMidYMid meet" version="1.0"><path fill="#f8f8f8" d="M 367.066406 187.371094 C 367.066406 286.621094 286.609375 367.066406 187.359375 367.066406 C 88.109375 367.066406 7.664062 286.621094 7.664062 187.371094 C 7.664062 88.109375 88.109375 7.664062 187.359375 7.664062 C 286.609375 7.664062 367.066406 88.109375 367.066406 187.371094 " fill-opacity="1" fill-rule="nonzero"/><path fill="#ffa475" d="M 187.359375 15.421875 C 92.546875 15.421875 15.421875 92.558594 15.421875 187.371094 C 15.421875 282.171875 92.546875 359.296875 187.359375 359.296875 C 282.171875 359.296875 359.296875 282.171875 359.296875 187.371094 C 359.296875 92.558594 282.171875 15.421875 187.359375 15.421875 Z M 187.359375 374.835938 C 83.984375 374.835938 -0.105469 290.738281 -0.105469 187.371094 C -0.105469 83.992188 83.984375 -0.117188 187.359375 -0.117188 C 290.726562 -0.117188 374.835938 83.992188 374.835938 187.371094 C 374.835938 290.738281 290.726562 374.835938 187.359375 374.835938 " fill-opacity="1" fill-rule="nonzero"/><path fill="#ee6141" d="M 284.570312 124.011719 C 276.507812 102.210938 255.511719 86.621094 230.9375 86.609375 L 143.800781 86.609375 C 112.265625 86.621094 86.621094 112.265625 86.632812 143.78125 L 86.621094 230.90625 C 86.621094 233.484375 86.808594 236.027344 87.132812 238.53125 C 88.769531 250.917969 94.390625 262.359375 103.363281 271.34375 C 114.167969 282.152344 128.523438 288.097656 143.800781 288.097656 L 230.929688 288.109375 C 262.445312 288.097656 288.097656 262.445312 288.097656 230.917969 L 288.097656 143.792969 C 288.109375 136.839844 286.851562 130.179688 284.570312 124.011719 " fill-opacity="1" fill-rule="nonzero"/><path fill="#ffa475" d="M 186.0625 86.609375 L 169.058594 86.609375 C 147.886719 122.660156 112.566406 133.214844 87.25 135.8125 C 86.882812 138.429688 86.632812 141.078125 86.632812 143.78125 L 86.632812 150.554688 C 117.164062 147.625 162.199219 134.671875 186.0625 86.609375 " fill-opacity="1" fill-rule="nonzero"/><path fill="#ffa475" d="M 182.21875 178.125 C 208.730469 158.566406 242.027344 122.179688 259.179688 94.140625 C 254.886719 91.679688 250.234375 89.761719 245.335938 88.484375 C 230.132812 112.347656 200.480469 146.09375 173.351562 166.105469 C 152.011719 181.839844 113.113281 176.261719 86.632812 169.738281 L 86.632812 185.128906 C 100.515625 188.34375 117.207031 191.097656 133.582031 191.097656 C 151.539062 191.097656 169.128906 187.777344 182.21875 178.125 " fill-opacity="1" fill-rule="nonzero"/><path fill="#ffa475" d="M 231.652344 215.734375 C 257.3125 199.109375 275.429688 182.785156 288.097656 168.753906 L 288.097656 145.101562 C 276.875 160.304688 257.105469 181.433594 223.523438 203.203125 C 182.574219 229.746094 123.34375 218.84375 86.621094 207.851562 L 86.621094 223.589844 C 106.808594 229.390625 132.609375 234.761719 158.972656 234.761719 C 184.15625 234.761719 209.859375 229.859375 231.652344 215.734375 " fill-opacity="1" fill-rule="nonzero"/><path fill="#ffa475" d="M 231.714844 272.789062 C 255.953125 267.355469 273.691406 256.214844 286.652344 243.535156 C 287.574219 239.472656 288.097656 235.261719 288.097656 230.917969 L 288.097656 218.96875 C 276.695312 235.136719 258.183594 251.542969 228.445312 258.203125 C 184.03125 268.171875 124.535156 253.011719 87.53125 240.84375 C 88.632812 247.117188 90.746094 253.105469 93.816406 258.632812 C 122.503906 267.4375 160.417969 276.390625 196.03125 276.390625 C 208.363281 276.390625 220.425781 275.3125 231.714844 272.789062 " fill-opacity="1" fill-rule="nonzero"/></svg>