<svg xmlns="http://www.w3.org/2000/svg" xmlns:xlink="http://www.w3.org/1999/xlink" width="500" zoomAndPan="magnify" viewBox="0 0 375 374.999991" height="500" preserveAspectRatio="xMidYMid meet" version="1.0"><path fill="#f8f8f8" d="M 361.425781 187.5 C 361.425781 283.574219 283.574219 361.425781 187.5 361.425781 C 91.425781 361.425781 13.574219 283.574219 13.574219 187.5 C 13.574219 91.425781 91.5 13.574219 187.5 13.574219 C 283.5 13.574219 361.425781 91.425781 361.425781 187.5 Z M 361.425781 187.5 " fill-opacity="1" fill-rule="nonzero"/><path fill="#313131" d="M 187.5 0 C 84.148438 0 0 84.074219 0 187.5 C 0 290.925781 84.148438 375 187.5 375 C 290.851562 375 375 290.925781 375 187.5 C 375 84.074219 290.925781 0 187.5 0 Z M 187.5 359.324219 C 92.773438 359.324219 15.675781 282.226562 15.675781 187.5 C 15.675781 92.773438 92.773438 15.675781 187.5 15.675781 C 282.226562 15.675781 359.324219 92.773438 359.324219 187.5 C 359.324219 282.226562 282.300781 359.324219 187.5 359.324219 Z M 187.5 359.324219 " fill-opacity="1" fill-rule="nonzero"/><path fill="#ee6141" d="M 98.851562 182.398438 C 91.800781 196.949219 86.25 212.398438 82.800781 228.300781 C 77.851562 215.625 75.148438 201.898438 75.148438 187.5 C 75.148438 125.476562 125.476562 75.148438 187.5 75.148438 C 194.851562 75.148438 202.125 75.824219 209.101562 77.25 C 202.125 80.398438 195.226562 83.851562 188.476562 87.375 C 173.925781 94.949219 161.101562 103.125 148.949219 114.375 C 128.25 133.5 111.074219 156.976562 98.851562 182.398438 Z M 278.324219 121.273438 C 266.324219 104.773438 249.976562 91.800781 230.851562 83.773438 C 229.726562 84.226562 228.601562 84.601562 227.476562 85.050781 C 197.398438 96.449219 169.800781 111.898438 147.824219 135.601562 C 119.324219 166.351562 97.726562 207.226562 93.898438 249.523438 C 103.574219 264.074219 116.550781 276.226562 131.773438 285 C 136.425781 271.5 141.976562 258.375 148.425781 245.625 C 175.949219 190.726562 221.023438 142.726562 278.324219 121.273438 Z M 299.851562 186.601562 C 299.699219 167.25 294.675781 149.101562 285.898438 133.273438 C 278.699219 135.75 271.648438 138.75 264.824219 142.273438 C 206.25 171.898438 165.226562 229.800781 144.523438 291.375 C 157.726562 296.851562 172.273438 299.925781 187.5 299.925781 C 191.25 299.925781 195 299.773438 198.75 299.398438 C 220.351562 252.675781 255.824219 213 299.851562 186.601562 Z M 215.925781 296.25 C 258.976562 285.074219 291.976562 248.925781 298.648438 204.226562 C 263.773438 227.25 234.976562 259.050781 215.925781 296.25 Z M 215.925781 296.25 " fill-opacity="1" fill-rule="nonzero"/></svg>